<svg xmlns="http://www.w3.org/2000/svg" xmlns:xlink="http://www.w3.org/1999/xlink" width="89" height="30" viewBox="0 0 89 30">
    <defs>
        <path id="a" d="M0 30h91V0H0z"/>
    </defs>
    <g fill="none" fill-rule="evenodd" transform="translate(-2)">
        <path fill="#FEFEFE" d="M3.84 11.997c.577.333 1.266.584 2.051.756.8.165 1.661.247 2.586.247 2.065 0 3.67-.32 4.81-.947C14.43 11.429 15 10.537 15 9.399c0-.595-.15-1.093-.428-1.49a3.323 3.323 0 0 0-1.16-.96 7.01 7.01 0 0 0-1.654-.607 24.52 24.52 0 0 0-1.922-.38c-.653-.112-1.31-.215-1.95-.317a13.123 13.123 0 0 1-1.742-.373 4.8 4.8 0 0 1-1.343-.59 1.575 1.575 0 0 1-.693-.965 1.477 1.477 0 0 1 .076-.957c.126-.317.372-.61.716-.875.352-.264.82-.475 1.399-.644.594-.165 1.316-.247 2.178-.247.567 0 1.104.05 1.64.155.524.102 1.002.26 1.406.479.418.22.743.498.985.838.238.347.354.753.354 1.222h1.624c0-.502-.126-.981-.38-1.423-.243-.45-.624-.839-1.118-1.176-.494-.336-1.117-.607-1.87-.798C10.37.096 9.482 0 8.478 0c-.998 0-1.866.093-2.632.274-.762.182-1.389.43-1.893.736-.51.31-.891.664-1.143 1.063-.258.403-.395.812-.395 1.235 0 .607.166 1.102.481 1.502.308.39.726.713 1.226.967a7.575 7.575 0 0 0 1.734.601c.656.145 1.326.28 2.015.383.68.115 1.356.221 2.009.333.653.12 1.23.274 1.73.463.514.181.925.426 1.233.726.312.297.471.683.471 1.165 0 .343-.086.667-.259.977-.179.31-.444.581-.815.816-.358.234-.822.42-1.402.558-.587.135-1.27.204-2.065.204a10.27 10.27 0 0 1-1.906-.165 5.33 5.33 0 0 1-1.581-.525 3.34 3.34 0 0 1-1.117-.927c-.288-.387-.46-.849-.53-1.397H2c0 .67.163 1.258.484 1.753.325.499.776.918 1.356 1.255M33.378 11.791C34.464 10.988 35 9.813 35 8.291V1h-1.591v6.967c0 .691-.078 1.287-.248 1.802-.17.507-.447.93-.841 1.273-.387.337-.896.596-1.527.76-.627.17-1.39.255-2.293.255-1.73 0-2.979-.32-3.759-.964-.77-.637-1.16-1.675-1.16-3.126V1H22v7.29c0 1.492.526 2.653 1.608 3.47C24.68 12.586 26.301 13 28.5 13c2.174 0 3.8-.405 4.878-1.209M55 12V1h-1.561v9.61h-.054L43.785 1H42v11h1.574V2.402h.04L53.182 12zM60 .97h5.66V12h1.684V.97H73V0H60zM84.906 12L91 0h-1.731l-5.261 10.665L78.728 0H77l6.088 12zM7.259 23.755h1.4c-.485.795-1.046 1.44-1.68 1.93v-.34a5.582 5.582 0 0 0-.953-3.18l1.008-3.746V17H3v13h1.233V18.363h1.625l-1.065 3.916c.71 1.06 1.046 2.026 1.009 2.896 0 .757-.244 1.116-.729 1.078h-.84c.112.227.242.606.392 1.136a.968.968 0 0 1 .056.284c.112 0 .261-.02.448-.057.187 0 .337-.019.449-.057.784-.114 1.232-.586 1.344-1.42l.617.682c.41-.34.784-.718 1.12-1.135H9.78c-.636 1.211-1.7 2.157-3.194 2.838.261.264.541.586.84.965 1.682-.908 2.895-2.176 3.643-3.803h1.065c-.412 1.438-1.27 2.592-2.578 3.462.448.378.765.662.953.852 1.381-1.098 2.315-2.535 2.801-4.314h.897c0 .908-.038 1.646-.112 2.214-.038.53-.3.775-.785.738-.15 0-.374-.02-.672-.057h-.504c.074.264.168.681.28 1.249h1.233c1.083 0 1.661-.568 1.737-1.703.074-1.286.112-2.441.112-3.463H9.444c.186-.264.355-.568.504-.909H16V22.62H7.259v1.135z"/>
        <mask id="b" fill="#fff">
            <use xlink:href="#a"/>
        </mask>
        <path fill="#FEFEFE" d="M9.355 20.941h4.29V20h-4.29v.941zm0-1.941h4.29v-.941h-4.29V19zM8 22h7v-5H8v5zM40 18.914L38.746 18A32.401 32.401 0 0 1 36 20.971L37.134 22c1.353-1.333 2.308-2.362 2.866-3.086" mask="url(#b)"/>
        <path fill="#FEFEFE" d="M38.402 27.607c-.036.544-.32.816-.853.816h-.906c-.568 0-.852-.29-.852-.87v-3.808h4.102v-1.36h-5.647V17h-1.492v5.385H27.16v1.36h3.463a.928.928 0 0 1-.053.272v.217c0 2.176-1.19 3.663-3.57 4.46.07.11.177.254.32.436.284.398.497.688.639.87 2.735-1.124 4.102-3.027 4.102-5.711v-.544h2.291v4.134c0 1.196.621 1.795 1.865 1.795h1.492c1.136.035 1.793-.418 1.971-1.36.107-.435.213-1.051.32-1.85v-.217a6.738 6.738 0 0 1-1.385-.544c-.036.835-.107 1.469-.213 1.904" mask="url(#b)"/>
        <path fill="#FEFEFE" d="M30.727 22L32 20.941c-.97-1.059-1.9-2.038-2.788-2.941L28 18.941c.646.667 1.555 1.687 2.727 3.059M54.83 20c-.78 1.474-1.722 2.737-2.83 3.79.123.42.287.86.492 1.315.37-.316.595-.543.677-.684.164-.175.287-.298.37-.368V29h1.353v-6.632c.37-.526.739-1.087 1.108-1.684L54.83 20z" mask="url(#b)"/>
        <path fill="#FEFEFE" d="M59.09 19.973H57.4l.218-1.027h1.473v1.027zm1.91 0h-.764v-2.054h-2.454l.163-.81-1.2-.109-.163.919h-1.146v1.027h.928l-.164 1.027H55V21h6v-1.027zM57.195 22.842h2.966v-.947h-2.966v.947zm-.475 3.842h1.602V25.58H56.72v1.105zm5.28 0h-2.373V25.58h2.136v-1h-2.136v-.842h1.78V21h-5.458v2.737h2.373v.842h-2.67v2.105H55v.842h3.322V29h1.305v-1.474H62v-.842z" mask="url(#b)"/>
        <path fill="#FEFEFE" d="M61.278 22.219h1.333v5.033c.037.388-.186.564-.667.53H61c.036.14.092.405.167.794.036.212.055.353.055.424h1.223c1-.036 1.5-.512 1.5-1.43v-5.351H65V21h-3.722v1.219zM52 20.452c.032.12.097.298.194.536.128.437.225.774.29 1.012.968-1.23 1.806-2.639 2.516-4.226L53.984 17A11.05 11.05 0 0 1 52 20.452M62 19h3v-1h-3zM76 26.704l1.151.296c.04-.198.1-.46.182-.79.323-1.284.546-2.304.667-3.062L76.848 23A32.158 32.158 0 0 1 76 26.704M77 19h4v-1h-4z" mask="url(#b)"/>
        <path fill="#FEFEFE" d="M82 21h-5v1.301h1.968V30h1.277v-7.699H82z" mask="url(#b)"/>
        <path fill="#FEFEFE" d="M82 25.7c-.203-.833-.526-1.733-.97-2.7l-1.03.25c.202.5.424 1.184.667 2.05.12.3.201.534.242.7L82 25.7z" mask="url(#b)"/>
        <path fill="#FEFEFE" d="M83.689 24.348h4.006V23.16H83.69v1.187zm0-2.318h4.006v-1.413H83.69v1.413zm0-2.543h4.006v-1.3H83.69v1.3zm5.268 6.84c-.037.376-.055.508-.055.395-.036.528-.073.885-.11 1.074-.036.339-.238.508-.603.508h-.274c-.403.037-.586-.131-.55-.508v-2.261h1.647V17h-6.695v8.535h1.427a3.886 3.886 0 0 0-.055.622c-.11 1.243-1.007 2.147-2.689 2.713.292.376.567.753.823 1.13 2.012-.83 3.054-2.091 3.128-3.787.036-.226.055-.452.055-.678h1.098v2.543c-.037 1.055.475 1.563 1.536 1.526h.659c.841 0 1.335-.433 1.481-1.3.073-.188.146-.715.22-1.582a1.73 1.73 0 0 0-.384-.113 6.946 6.946 0 0 1-.659-.283z" mask="url(#b)"/>
    </g>
</svg>
