<svg xmlns="http://www.w3.org/2000/svg" width="96" height="18" viewBox="0 0 96 18">
    <g fill="#FFF" fill-rule="evenodd">
        <path d="M63.593 10.318c.641.686 1.407 1.759 1.407 2.998 0 1.354-.608 2.606-1.708 3.523-.937.78-2.336 1.161-4.278 1.161-.573 0-1.151-.046-1.722-.137a21.143 21.143 0 0 1-2.086-.456l.267-.968c.779.21 1.442.357 1.977.44.521.08 1.045.124 1.564.124 1.668 0 2.893-.312 3.629-.928.866-.724 1.347-1.703 1.347-2.76 0-.914-.62-1.764-1.138-2.321-.565-.598-1.54-1.127-2.898-1.556a12.974 12.974 0 0 0-.69-.225c-.244-.078-.435-.142-.573-.185-1.282-.405-2.197-.914-2.778-1.534-.606-.646-.913-1.472-.913-2.45 0-1.162.464-2.138 1.396-2.912C57.292 1.383 58.427 1 59.758 1c.47 0 .954 0 1.47.126 1.415.324 2.933 1.201 3.34 1.77l-.815.582c-.228-.314-1.518-1.1-2.756-1.381C60.595 2 60.187 2 59.758 2c-1.102 0-1.99.295-2.71.896-.695.582-1.035 1.284-1.035 2.148 0 .732.206 1.31.641 1.77.456.487 1.247.91 2.352 1.268.141.048.329.107.57.177l.696.23c1.518.483 2.637 1.102 3.321 1.829zM0 3v.939h5.514V18h1.083V3.939H12V3zM15 18h1V4h-1zM19.11 16.977h.102c1 0 3.57-.085 5.786-.933 2.581-.98 3.891-2.664 3.891-4.999 0-5.66-7.548-6.016-9.778-6.027v11.959zM19.213 18c-.438 0-.694-.016-.694-.016L18 17.956V4.041l.518-.033s.25-.008.676-.008C21.728 4 30 4.502 30 11.045c0 2.75-1.584 4.807-4.577 5.943-2.316.886-4.886 1.012-6.211 1.012zM81 18h-6.843c-1.427 0-2.594-.447-3.472-1.32-1.921-1.927-1.681-5.256-1.67-5.392V4h1.091v7.323c-.006.068-.21 3.067 1.384 4.67.663.668 1.54.99 2.667.99h5.75V4.223H81V18zM96 18L85.083 6.757V18H84V4.14l10.917 11.243V4H96zM43 5.018V4H33v14h10v-1.024h-9.007v-5.449h7.737v-1.024h-7.737V5.018zM50 17h1V5h-1zM49 2h1V0h-1z"/>
    </g>
</svg>
