<svg xmlns="http://www.w3.org/2000/svg" xmlns:xlink="http://www.w3.org/1999/xlink" width="31" height="30" viewBox="0 0 31 30">
    <defs>
        <path id="a" d="M0 29.409V.05h30.363V29.41z"/>
    </defs>
    <g fill="none" fill-rule="evenodd" transform="translate(0 .395)">
        <mask id="b" fill="#fff">
            <use xlink:href="#a"/>
        </mask>
        <path fill="#FEFEFE" d="M27.007 6.696c-.056.03-.112.056-.168.089-3.642 1.916-7.655 4.974-11.413 8.711a.954.954 0 0 1-.69.292.938.938 0 0 1-.698-.292.962.962 0 0 1 0-1.388c3.757-3.743 7.784-6.844 11.498-8.859.1-.05.152-.292.096-.364-.03-.04-.072-.07-.096-.099l2.3-1.247c-.365-.66-1.855-.557-3.356.247-.032.026-.072.042-.112.065-3.447 1.762-7.566 4.738-11.721 8.883a.996.996 0 0 1-.701.282.949.949 0 0 1-.688-.282.993.993 0 0 1 0-1.395c3.649-3.645 7.554-6.668 11.186-8.682.115-.072.131-.328.033-.394-.033-.026-.073-.059-.115-.079L24.2 1.141c-.372-.66-1.869-.525-3.343.315-.108.052-.2.111-.293.167-3.454 1.933-7.185 4.83-10.705 8.331a.948.948 0 0 1-.684.286.967.967 0 0 1-.698-.286.989.989 0 0 1 0-1.391C11.58 5.469 14.88 2.808 18.036.839c.154-.095.128-.384-.04-.423a14.444 14.444 0 0 0-3.28-.365C6.583.051 0 6.621 0 14.72c0 8.12 6.583 14.69 14.716 14.69 8.126 0 14.72-6.57 14.72-14.69 0-2.464-.62-4.8-1.712-6.852l2.639-1.388c-.362-.669-1.856-.57-3.356.217" mask="url(#b)"/>
    </g>
</svg>
